<mxfile host="Electron" modified="2024-04-05T14:03:42.782Z" agent="Mozilla/5.0 (Macintosh; Intel Mac OS X 10_15_7) AppleWebKit/537.36 (KHTML, like Gecko) draw.io/24.1.0 Chrome/120.0.6099.109 Electron/28.1.0 Safari/537.36" etag="LdriFSGNHc8kxmKcvBPi" version="24.1.0" type="device">
  <diagram name="Page-1" id="74e2e168-ea6b-b213-b513-2b3c1d86103e">
    <mxGraphModel dx="1025" dy="878" grid="1" gridSize="10" guides="1" tooltips="1" connect="1" arrows="1" fold="1" page="1" pageScale="1" pageWidth="1100" pageHeight="850" background="none" math="0" shadow="0">
      <root>
        <mxCell id="0" />
        <mxCell id="1" parent="0" />
        <mxCell id="77e6c97f196da883-1" value="&lt;font style=&quot;font-size: 18px;&quot;&gt;Flyt for resgjeld og saldoforespørsel&lt;/font&gt;" style="swimlane;html=1;childLayout=stackLayout;startSize=20;rounded=0;shadow=0;labelBackgroundColor=none;strokeWidth=1;fontFamily=Verdana;fontSize=8;align=center;fillColor=#E6E6E6;" parent="1" vertex="1">
          <mxGeometry x="70" y="40" width="780" height="200" as="geometry" />
        </mxCell>
        <mxCell id="77e6c97f196da883-4" value="Lane 3" style="swimlane;html=1;startSize=20;fillColor=#E6E6E6;" parent="77e6c97f196da883-1" vertex="1">
          <mxGeometry y="20" width="400" height="180" as="geometry" />
        </mxCell>
        <mxCell id="77e6c97f196da883-5" value="Salgsfase" style="swimlane;html=1;startSize=20;fillColor=#E6E6E6;" parent="77e6c97f196da883-4" vertex="1">
          <mxGeometry x="20" width="380" height="180" as="geometry" />
        </mxCell>
        <mxCell id="SMqvmebVRmXr8g2wHXDr-20" value="&lt;meta charset=&quot;utf-8&quot;&gt;&lt;span style=&quot;color: rgb(240, 240, 240); font-family: Helvetica; font-size: 12px; font-style: normal; font-variant-ligatures: normal; font-variant-caps: normal; font-weight: 400; letter-spacing: normal; orphans: 2; text-align: center; text-indent: 0px; text-transform: none; widows: 2; word-spacing: 0px; -webkit-text-stroke-width: 0px; white-space: normal; background-color: rgb(27, 29, 30); text-decoration-thickness: initial; text-decoration-style: initial; text-decoration-color: initial; display: inline !important; float: none;&quot;&gt;Sjekk heftelser på eiendom&lt;/span&gt;" style="rounded=0;whiteSpace=wrap;html=1;" parent="77e6c97f196da883-5" vertex="1">
          <mxGeometry x="10" y="65" width="90" height="50" as="geometry" />
        </mxCell>
        <mxCell id="SMqvmebVRmXr8g2wHXDr-21" value="&lt;span style=&quot;color: rgb(240, 240, 240); font-family: Helvetica; font-size: 12px; font-style: normal; font-variant-ligatures: normal; font-variant-caps: normal; font-weight: 400; letter-spacing: normal; orphans: 2; text-align: center; text-indent: 0px; text-transform: none; widows: 2; word-spacing: 0px; -webkit-text-stroke-width: 0px; white-space: normal; background-color: rgb(27, 29, 30); text-decoration-thickness: initial; text-decoration-style: initial; text-decoration-color: initial; display: inline !important; float: none;&quot;&gt;Ber om resgjeldsoppgave&lt;/span&gt;" style="rounded=0;whiteSpace=wrap;html=1;" parent="77e6c97f196da883-5" vertex="1">
          <mxGeometry x="130" y="65" width="110" height="50" as="geometry" />
        </mxCell>
        <mxCell id="SMqvmebVRmXr8g2wHXDr-23" value="&lt;span style=&quot;color: rgb(240, 240, 240); font-family: Helvetica; font-size: 12px; font-style: normal; font-variant-ligatures: normal; font-variant-caps: normal; font-weight: 400; letter-spacing: normal; orphans: 2; text-align: center; text-indent: 0px; text-transform: none; widows: 2; word-spacing: 0px; -webkit-text-stroke-width: 0px; white-space: normal; background-color: rgb(27, 29, 30); text-decoration-thickness: initial; text-decoration-style: initial; text-decoration-color: initial; display: inline !important; float: none;&quot;&gt;Behandler resgjeldsoppgave&lt;/span&gt;" style="rounded=0;whiteSpace=wrap;html=1;" parent="77e6c97f196da883-5" vertex="1">
          <mxGeometry x="270" y="65" width="100" height="50" as="geometry" />
        </mxCell>
        <mxCell id="SMqvmebVRmXr8g2wHXDr-2" value="&lt;b&gt;Megler&lt;/b&gt;" style="text;html=1;align=center;verticalAlign=middle;whiteSpace=wrap;rounded=0;direction=west;flipV=0;rotation=-90;" parent="77e6c97f196da883-4" vertex="1">
          <mxGeometry x="-20" y="75" width="60" height="30" as="geometry" />
        </mxCell>
        <mxCell id="77e6c97f196da883-6" value="Eiendom solgt - overtagelsesdato kjent" style="swimlane;html=1;startSize=20;fillColor=#E6E6E6;" parent="77e6c97f196da883-1" vertex="1">
          <mxGeometry x="400" y="20" width="380" height="180" as="geometry" />
        </mxCell>
        <mxCell id="SMqvmebVRmXr8g2wHXDr-26" value="&lt;span style=&quot;color: rgb(240, 240, 240); font-family: Helvetica; font-size: 12px; font-style: normal; font-variant-ligatures: normal; font-variant-caps: normal; font-weight: 400; letter-spacing: normal; orphans: 2; text-align: center; text-indent: 0px; text-transform: none; widows: 2; word-spacing: 0px; -webkit-text-stroke-width: 0px; white-space: normal; background-color: rgb(27, 29, 30); text-decoration-thickness: initial; text-decoration-style: initial; text-decoration-color: initial; display: inline !important; float: none;&quot;&gt;Behandler innfrielses oppgave&lt;/span&gt;" style="rounded=0;whiteSpace=wrap;html=1;" parent="77e6c97f196da883-6" vertex="1">
          <mxGeometry x="250" y="65" width="120" height="50" as="geometry" />
        </mxCell>
        <mxCell id="SMqvmebVRmXr8g2wHXDr-30" value="&lt;span style=&quot;color: rgb(240, 240, 240); font-family: Helvetica; font-size: 12px; font-style: normal; font-variant-ligatures: normal; font-variant-caps: normal; font-weight: 400; letter-spacing: normal; orphans: 2; text-align: center; text-indent: 0px; text-transform: none; widows: 2; word-spacing: 0px; -webkit-text-stroke-width: 0px; white-space: normal; background-color: rgb(27, 29, 30); text-decoration-thickness: initial; text-decoration-style: initial; text-decoration-color: initial; display: inline !important; float: none;&quot;&gt;Ber om innfrielses-saldo&lt;/span&gt;" style="rounded=0;whiteSpace=wrap;html=1;" parent="77e6c97f196da883-6" vertex="1">
          <mxGeometry x="25" y="65" width="110" height="50" as="geometry" />
        </mxCell>
        <mxCell id="SMqvmebVRmXr8g2wHXDr-14" value="" style="swimlane;html=1;startSize=0;fillColor=#E6E6E6;" parent="1" vertex="1">
          <mxGeometry x="70" y="240" width="20" height="180" as="geometry" />
        </mxCell>
        <mxCell id="SMqvmebVRmXr8g2wHXDr-11" value="Kreditor" style="text;html=1;align=center;verticalAlign=middle;whiteSpace=wrap;rounded=0;direction=west;flipV=0;rotation=-90;fontStyle=1" parent="SMqvmebVRmXr8g2wHXDr-14" vertex="1">
          <mxGeometry x="-20" y="75" width="60" height="30" as="geometry" />
        </mxCell>
        <mxCell id="SMqvmebVRmXr8g2wHXDr-15" value="" style="swimlane;html=1;startSize=0;fillColor=#CCCCCC;" parent="1" vertex="1">
          <mxGeometry x="90" y="240" width="380" height="180" as="geometry" />
        </mxCell>
        <mxCell id="SMqvmebVRmXr8g2wHXDr-31" value="&lt;span style=&quot;color: rgb(240, 240, 240); font-family: Helvetica; font-size: 12px; font-style: normal; font-variant-ligatures: normal; font-variant-caps: normal; font-weight: 400; letter-spacing: normal; orphans: 2; text-align: center; text-indent: 0px; text-transform: none; widows: 2; word-spacing: 0px; -webkit-text-stroke-width: 0px; white-space: normal; background-color: rgb(27, 29, 30); text-decoration-thickness: initial; text-decoration-style: initial; text-decoration-color: initial; display: inline !important; float: none;&quot;&gt;Fyller ut resgjeldsoppgave&lt;/span&gt;" style="rounded=0;whiteSpace=wrap;html=1;" parent="SMqvmebVRmXr8g2wHXDr-15" vertex="1">
          <mxGeometry x="125" y="55" width="120" height="50" as="geometry" />
        </mxCell>
        <mxCell id="SMqvmebVRmXr8g2wHXDr-18" value="" style="swimlane;html=1;startSize=0;fillColor=#E6E6E6;" parent="1" vertex="1">
          <mxGeometry x="470" y="240" width="380" height="180" as="geometry" />
        </mxCell>
        <mxCell id="SMqvmebVRmXr8g2wHXDr-25" value="&lt;span style=&quot;color: rgb(240, 240, 240); font-family: Helvetica; font-size: 12px; font-style: normal; font-variant-ligatures: normal; font-variant-caps: normal; font-weight: 400; letter-spacing: normal; orphans: 2; text-align: center; text-indent: 0px; text-transform: none; widows: 2; word-spacing: 0px; -webkit-text-stroke-width: 0px; white-space: normal; background-color: rgb(27, 29, 30); text-decoration-thickness: initial; text-decoration-style: initial; text-decoration-color: initial; display: inline !important; float: none;&quot;&gt;Fyller ut innfrielses oppgave&lt;/span&gt;" style="rounded=0;whiteSpace=wrap;html=1;" parent="SMqvmebVRmXr8g2wHXDr-18" vertex="1">
          <mxGeometry x="20" y="55" width="120" height="50" as="geometry" />
        </mxCell>
        <mxCell id="SMqvmebVRmXr8g2wHXDr-32" style="edgeStyle=orthogonalEdgeStyle;rounded=0;orthogonalLoop=1;jettySize=auto;html=1;entryX=0.5;entryY=0;entryDx=0;entryDy=0;" parent="1" source="SMqvmebVRmXr8g2wHXDr-21" target="SMqvmebVRmXr8g2wHXDr-31" edge="1">
          <mxGeometry relative="1" as="geometry" />
        </mxCell>
        <mxCell id="SMqvmebVRmXr8g2wHXDr-33" style="edgeStyle=orthogonalEdgeStyle;rounded=0;orthogonalLoop=1;jettySize=auto;html=1;entryX=0.5;entryY=1;entryDx=0;entryDy=0;" parent="1" source="SMqvmebVRmXr8g2wHXDr-31" target="SMqvmebVRmXr8g2wHXDr-23" edge="1">
          <mxGeometry relative="1" as="geometry" />
        </mxCell>
        <mxCell id="SMqvmebVRmXr8g2wHXDr-34" style="edgeStyle=orthogonalEdgeStyle;rounded=0;orthogonalLoop=1;jettySize=auto;html=1;entryX=0.5;entryY=0;entryDx=0;entryDy=0;" parent="1" source="SMqvmebVRmXr8g2wHXDr-30" target="SMqvmebVRmXr8g2wHXDr-25" edge="1">
          <mxGeometry relative="1" as="geometry" />
        </mxCell>
        <mxCell id="SMqvmebVRmXr8g2wHXDr-35" style="edgeStyle=orthogonalEdgeStyle;rounded=0;orthogonalLoop=1;jettySize=auto;html=1;entryX=0.5;entryY=1;entryDx=0;entryDy=0;" parent="1" source="SMqvmebVRmXr8g2wHXDr-25" target="SMqvmebVRmXr8g2wHXDr-26" edge="1">
          <mxGeometry relative="1" as="geometry" />
        </mxCell>
      </root>
    </mxGraphModel>
  </diagram>
</mxfile>
